<svg width="103" height="23" viewBox="0 0 103 23" fill="none" xmlns="http://www.w3.org/2000/svg">
<path d="M14.584 23L9.752 15.48L5.368 23H0.312L7.352 11.736L0.216 0.664H5.368L10.2 8.152L14.552 0.664H19.608L12.6 11.896L19.736 23H14.584Z" fill="#19D688"/>
<path d="M35.7535 23L27.6255 13.048V23H23.1455V0.664H27.6255V10.68L35.7535 0.664H41.1615L31.9455 11.736L41.4175 23H35.7535ZM58.0603 18.744H49.1643L47.6923 23H42.9883L51.0203 0.631998H56.2363L64.2683 23H59.5323L58.0603 18.744ZM56.8443 15.16L53.6123 5.816L50.3802 15.16H56.8443ZM78.7905 23L73.8625 14.296H71.7505V23H67.2705V0.664H75.6545C77.3825 0.664 78.8545 0.973333 80.0705 1.592C81.2865 2.18933 82.1932 3.01067 82.7905 4.056C83.4092 5.08 83.7185 6.232 83.7185 7.512C83.7185 8.984 83.2918 10.3173 82.4385 11.512C81.5852 12.6853 80.3158 13.496 78.6305 13.944L83.9745 23H78.7905ZM71.7505 10.936H75.4945C76.7105 10.936 77.6172 10.648 78.2145 10.072C78.8118 9.47467 79.1105 8.65333 79.1105 7.608C79.1105 6.584 78.8118 5.79467 78.2145 5.24C77.6172 4.664 76.7105 4.376 75.4945 4.376H71.7505V10.936ZM102.971 0.664V4.28H97.0185V23H92.5385V4.28H86.5865V0.664H102.971Z" fill="white"/>
</svg>
